<mxfile host="app.diagrams.net" modified="2023-04-03T12:04:27.071Z" agent="Mozilla/5.0 (Macintosh; Intel Mac OS X 10_15_7) AppleWebKit/537.36 (KHTML, like Gecko) Chrome/111.0.0.0 Safari/537.36" etag="jdzHGmXVWTgzgw9iQD0b" version="21.1.2" type="device">
  <diagram name="Page-1" id="93VnuNxYh2gsQvyITQv-">
    <mxGraphModel dx="1811" dy="589" grid="1" gridSize="10" guides="1" tooltips="1" connect="1" arrows="1" fold="1" page="1" pageScale="1" pageWidth="827" pageHeight="1169" math="0" shadow="0">
      <root>
        <mxCell id="0" />
        <mxCell id="1" parent="0" />
        <mxCell id="WAZ4GPwKuYtBpsJgTXGQ-4" value="" style="edgeStyle=orthogonalEdgeStyle;rounded=0;orthogonalLoop=1;jettySize=auto;html=1;" edge="1" parent="1" source="Qxa5S_glfbw3jdkzJXX0-1" target="WAZ4GPwKuYtBpsJgTXGQ-2">
          <mxGeometry relative="1" as="geometry" />
        </mxCell>
        <mxCell id="Qxa5S_glfbw3jdkzJXX0-1" value="User scans the QR code present in relying party portal" style="ellipse;whiteSpace=wrap;html=1;fillColor=#dae8fc;strokeColor=#6c8ebf;" parent="1" vertex="1">
          <mxGeometry x="30" y="210" width="120" height="80" as="geometry" />
        </mxCell>
        <mxCell id="1QkmKIXsnP00DaD5SYNQ-26" value="" style="ellipse;html=1;shape=endState;fillColor=#000000;strokeColor=#ff0000;" parent="1" vertex="1">
          <mxGeometry x="75" y="1380" width="30" height="30" as="geometry" />
        </mxCell>
        <mxCell id="WAZ4GPwKuYtBpsJgTXGQ-13" value="" style="edgeStyle=orthogonalEdgeStyle;rounded=0;orthogonalLoop=1;jettySize=auto;html=1;" edge="1" parent="1" source="qRXAyHgxc0ocoIdJP8oU-1" target="WAZ4GPwKuYtBpsJgTXGQ-12">
          <mxGeometry relative="1" as="geometry" />
        </mxCell>
        <mxCell id="WAZ4GPwKuYtBpsJgTXGQ-14" value="Select VC and&amp;nbsp;&lt;br&gt;click on Verify" style="edgeLabel;html=1;align=center;verticalAlign=middle;resizable=0;points=[];" vertex="1" connectable="0" parent="WAZ4GPwKuYtBpsJgTXGQ-13">
          <mxGeometry x="-0.3625" y="-2" relative="1" as="geometry">
            <mxPoint x="2" y="9" as="offset" />
          </mxGeometry>
        </mxCell>
        <mxCell id="qRXAyHgxc0ocoIdJP8oU-1" value="Show VC selection screen with all activated VC." style="rounded=1;whiteSpace=wrap;html=1;fillColor=#dae8fc;strokeColor=#6c8ebf;" parent="1" vertex="1">
          <mxGeometry x="30" y="490" width="120" height="60" as="geometry" />
        </mxCell>
        <mxCell id="WAZ4GPwKuYtBpsJgTXGQ-5" value="" style="edgeStyle=orthogonalEdgeStyle;rounded=0;orthogonalLoop=1;jettySize=auto;html=1;" edge="1" parent="1" source="WAZ4GPwKuYtBpsJgTXGQ-2" target="WAZ4GPwKuYtBpsJgTXGQ-3">
          <mxGeometry relative="1" as="geometry" />
        </mxCell>
        <mxCell id="WAZ4GPwKuYtBpsJgTXGQ-2" value="&lt;font style=&quot;font-size: 12px;&quot;&gt;Send linkCode present inside QR code to the e-Signet API&lt;br&gt;&lt;/font&gt;" style="html=1;shape=mxgraph.infographic.ribbonSimple;notch1=0;notch2=20;align=center;verticalAlign=middle;fontSize=14;fontStyle=0;whiteSpace=wrap;fillColor=#d5e8d4;strokeColor=#82b366;" vertex="1" parent="1">
          <mxGeometry x="243.5" y="220" width="170" height="60" as="geometry" />
        </mxCell>
        <mxCell id="WAZ4GPwKuYtBpsJgTXGQ-7" style="edgeStyle=orthogonalEdgeStyle;rounded=0;orthogonalLoop=1;jettySize=auto;html=1;" edge="1" parent="1" source="WAZ4GPwKuYtBpsJgTXGQ-3" target="WAZ4GPwKuYtBpsJgTXGQ-6">
          <mxGeometry relative="1" as="geometry">
            <Array as="points">
              <mxPoint x="555" y="320" />
              <mxPoint x="90" y="320" />
            </Array>
          </mxGeometry>
        </mxCell>
        <mxCell id="WAZ4GPwKuYtBpsJgTXGQ-3" value="Receive response with client&lt;br&gt;information along with claims&lt;br&gt;and scopes&amp;nbsp;" style="html=1;shadow=0;dashed=0;align=center;verticalAlign=middle;shape=mxgraph.arrows2.arrow;dy=0;dx=10;notch=10;fillColor=#d5e8d4;strokeColor=#82b366;" vertex="1" parent="1">
          <mxGeometry x="470" y="220" width="170" height="60" as="geometry" />
        </mxCell>
        <mxCell id="WAZ4GPwKuYtBpsJgTXGQ-8" style="edgeStyle=orthogonalEdgeStyle;rounded=0;orthogonalLoop=1;jettySize=auto;html=1;entryX=0.092;entryY=0.813;entryDx=0;entryDy=0;exitX=0;exitY=0.5;exitDx=0;exitDy=0;entryPerimeter=0;" edge="1" parent="1" source="WAZ4GPwKuYtBpsJgTXGQ-6" target="Qxa5S_glfbw3jdkzJXX0-1">
          <mxGeometry relative="1" as="geometry">
            <Array as="points">
              <mxPoint x="5" y="390" />
              <mxPoint x="5" y="275" />
            </Array>
          </mxGeometry>
        </mxCell>
        <mxCell id="WAZ4GPwKuYtBpsJgTXGQ-11" value="failure" style="edgeLabel;html=1;align=center;verticalAlign=middle;resizable=0;points=[];" vertex="1" connectable="0" parent="WAZ4GPwKuYtBpsJgTXGQ-8">
          <mxGeometry x="0.0324" y="1" relative="1" as="geometry">
            <mxPoint as="offset" />
          </mxGeometry>
        </mxCell>
        <mxCell id="WAZ4GPwKuYtBpsJgTXGQ-9" value="" style="edgeStyle=orthogonalEdgeStyle;rounded=0;orthogonalLoop=1;jettySize=auto;html=1;" edge="1" parent="1" source="WAZ4GPwKuYtBpsJgTXGQ-6" target="qRXAyHgxc0ocoIdJP8oU-1">
          <mxGeometry relative="1" as="geometry" />
        </mxCell>
        <mxCell id="WAZ4GPwKuYtBpsJgTXGQ-10" value="success" style="edgeLabel;html=1;align=center;verticalAlign=middle;resizable=0;points=[];" vertex="1" connectable="0" parent="WAZ4GPwKuYtBpsJgTXGQ-9">
          <mxGeometry x="-0.225" relative="1" as="geometry">
            <mxPoint as="offset" />
          </mxGeometry>
        </mxCell>
        <mxCell id="WAZ4GPwKuYtBpsJgTXGQ-6" value="Is e-Signet call successful" style="rhombus;whiteSpace=wrap;html=1;fillColor=#fff2cc;strokeColor=#d6b656;" vertex="1" parent="1">
          <mxGeometry x="25" y="350" width="130" height="80" as="geometry" />
        </mxCell>
        <mxCell id="WAZ4GPwKuYtBpsJgTXGQ-19" value="" style="edgeStyle=orthogonalEdgeStyle;rounded=0;orthogonalLoop=1;jettySize=auto;html=1;" edge="1" parent="1" source="WAZ4GPwKuYtBpsJgTXGQ-12" target="WAZ4GPwKuYtBpsJgTXGQ-15">
          <mxGeometry relative="1" as="geometry" />
        </mxCell>
        <mxCell id="WAZ4GPwKuYtBpsJgTXGQ-20" value="perform face auth" style="edgeLabel;html=1;align=center;verticalAlign=middle;resizable=0;points=[];" vertex="1" connectable="0" parent="WAZ4GPwKuYtBpsJgTXGQ-19">
          <mxGeometry x="-0.0333" y="-2" relative="1" as="geometry">
            <mxPoint as="offset" />
          </mxGeometry>
        </mxCell>
        <mxCell id="WAZ4GPwKuYtBpsJgTXGQ-12" value="Open selfie camera and perform local face auth against VC" style="rounded=1;whiteSpace=wrap;html=1;fillColor=#dae8fc;strokeColor=#6c8ebf;" vertex="1" parent="1">
          <mxGeometry x="30" y="630" width="120" height="60" as="geometry" />
        </mxCell>
        <mxCell id="WAZ4GPwKuYtBpsJgTXGQ-17" style="edgeStyle=orthogonalEdgeStyle;rounded=0;orthogonalLoop=1;jettySize=auto;html=1;entryX=0;entryY=0.5;entryDx=0;entryDy=0;exitX=0;exitY=0.5;exitDx=0;exitDy=0;" edge="1" parent="1" source="WAZ4GPwKuYtBpsJgTXGQ-15" target="WAZ4GPwKuYtBpsJgTXGQ-12">
          <mxGeometry relative="1" as="geometry" />
        </mxCell>
        <mxCell id="WAZ4GPwKuYtBpsJgTXGQ-18" value="No" style="edgeLabel;html=1;align=center;verticalAlign=middle;resizable=0;points=[];" vertex="1" connectable="0" parent="WAZ4GPwKuYtBpsJgTXGQ-17">
          <mxGeometry x="-0.1886" y="3" relative="1" as="geometry">
            <mxPoint as="offset" />
          </mxGeometry>
        </mxCell>
        <mxCell id="WAZ4GPwKuYtBpsJgTXGQ-22" value="" style="edgeStyle=orthogonalEdgeStyle;rounded=0;orthogonalLoop=1;jettySize=auto;html=1;" edge="1" parent="1" source="WAZ4GPwKuYtBpsJgTXGQ-15" target="WAZ4GPwKuYtBpsJgTXGQ-21">
          <mxGeometry relative="1" as="geometry" />
        </mxCell>
        <mxCell id="WAZ4GPwKuYtBpsJgTXGQ-23" value="Yes" style="edgeLabel;html=1;align=center;verticalAlign=middle;resizable=0;points=[];" vertex="1" connectable="0" parent="WAZ4GPwKuYtBpsJgTXGQ-22">
          <mxGeometry x="-0.1429" y="1" relative="1" as="geometry">
            <mxPoint as="offset" />
          </mxGeometry>
        </mxCell>
        <mxCell id="WAZ4GPwKuYtBpsJgTXGQ-15" value="Is local face auth successful?" style="rhombus;whiteSpace=wrap;html=1;fillColor=#fff2cc;strokeColor=#d6b656;" vertex="1" parent="1">
          <mxGeometry x="25" y="770" width="130" height="80" as="geometry" />
        </mxCell>
        <mxCell id="WAZ4GPwKuYtBpsJgTXGQ-37" value="" style="edgeStyle=orthogonalEdgeStyle;rounded=0;orthogonalLoop=1;jettySize=auto;html=1;" edge="1" parent="1" source="WAZ4GPwKuYtBpsJgTXGQ-21" target="WAZ4GPwKuYtBpsJgTXGQ-24">
          <mxGeometry relative="1" as="geometry" />
        </mxCell>
        <mxCell id="WAZ4GPwKuYtBpsJgTXGQ-39" value="" style="edgeStyle=orthogonalEdgeStyle;rounded=0;orthogonalLoop=1;jettySize=auto;html=1;" edge="1" parent="1" source="WAZ4GPwKuYtBpsJgTXGQ-21" target="WAZ4GPwKuYtBpsJgTXGQ-24">
          <mxGeometry relative="1" as="geometry" />
        </mxCell>
        <mxCell id="WAZ4GPwKuYtBpsJgTXGQ-21" value="Show Consent Screen&lt;br&gt;Show all essential claims and ask user to choose voluntary claims" style="rounded=1;whiteSpace=wrap;html=1;fillColor=#dae8fc;strokeColor=#6c8ebf;" vertex="1" parent="1">
          <mxGeometry x="25" y="920" width="130" height="80" as="geometry" />
        </mxCell>
        <mxCell id="WAZ4GPwKuYtBpsJgTXGQ-25" style="edgeStyle=orthogonalEdgeStyle;rounded=0;orthogonalLoop=1;jettySize=auto;html=1;entryX=0;entryY=0.5;entryDx=0;entryDy=0;exitX=0;exitY=0.5;exitDx=0;exitDy=0;" edge="1" parent="1" source="WAZ4GPwKuYtBpsJgTXGQ-24" target="Qxa5S_glfbw3jdkzJXX0-1">
          <mxGeometry relative="1" as="geometry">
            <mxPoint x="-100" y="250" as="targetPoint" />
            <Array as="points">
              <mxPoint x="-60" y="1090" />
              <mxPoint x="-60" y="250" />
            </Array>
          </mxGeometry>
        </mxCell>
        <mxCell id="WAZ4GPwKuYtBpsJgTXGQ-27" value="Cancel" style="edgeLabel;html=1;align=center;verticalAlign=middle;resizable=0;points=[];" vertex="1" connectable="0" parent="WAZ4GPwKuYtBpsJgTXGQ-25">
          <mxGeometry x="-0.8739" y="1" relative="1" as="geometry">
            <mxPoint x="19" y="-1" as="offset" />
          </mxGeometry>
        </mxCell>
        <mxCell id="WAZ4GPwKuYtBpsJgTXGQ-33" value="" style="edgeStyle=orthogonalEdgeStyle;rounded=0;orthogonalLoop=1;jettySize=auto;html=1;" edge="1" parent="1" source="WAZ4GPwKuYtBpsJgTXGQ-24" target="WAZ4GPwKuYtBpsJgTXGQ-31">
          <mxGeometry relative="1" as="geometry" />
        </mxCell>
        <mxCell id="WAZ4GPwKuYtBpsJgTXGQ-34" value="Allow" style="edgeLabel;html=1;align=center;verticalAlign=middle;resizable=0;points=[];" vertex="1" connectable="0" parent="WAZ4GPwKuYtBpsJgTXGQ-33">
          <mxGeometry x="-0.687" relative="1" as="geometry">
            <mxPoint x="17" as="offset" />
          </mxGeometry>
        </mxCell>
        <mxCell id="WAZ4GPwKuYtBpsJgTXGQ-24" value="Select Button" style="rhombus;whiteSpace=wrap;html=1;fillColor=#fff2cc;strokeColor=#d6b656;" vertex="1" parent="1">
          <mxGeometry x="25" y="1050" width="130" height="80" as="geometry" />
        </mxCell>
        <mxCell id="WAZ4GPwKuYtBpsJgTXGQ-36" value="" style="edgeStyle=orthogonalEdgeStyle;rounded=0;orthogonalLoop=1;jettySize=auto;html=1;" edge="1" parent="1" source="WAZ4GPwKuYtBpsJgTXGQ-28" target="1QkmKIXsnP00DaD5SYNQ-26">
          <mxGeometry relative="1" as="geometry" />
        </mxCell>
        <mxCell id="WAZ4GPwKuYtBpsJgTXGQ-28" value="Show final status screen with QR login success or failure message based on e-Signet response" style="rounded=1;whiteSpace=wrap;html=1;fillColor=#dae8fc;strokeColor=#6c8ebf;" vertex="1" parent="1">
          <mxGeometry x="20" y="1260" width="140" height="80" as="geometry" />
        </mxCell>
        <mxCell id="WAZ4GPwKuYtBpsJgTXGQ-30" value="" style="edgeStyle=orthogonalEdgeStyle;rounded=0;orthogonalLoop=1;jettySize=auto;html=1;" edge="1" parent="1" source="WAZ4GPwKuYtBpsJgTXGQ-31" target="WAZ4GPwKuYtBpsJgTXGQ-32">
          <mxGeometry relative="1" as="geometry" />
        </mxCell>
        <mxCell id="WAZ4GPwKuYtBpsJgTXGQ-31" value="&lt;font style=&quot;font-size: 12px;&quot;&gt;1. Create JWT token with VC private key and certificate and send to e-Signet validate API for validation&lt;br&gt;2. Call&amp;nbsp;&amp;nbsp;e-Signet consent API&amp;nbsp;and send selected claims and scopes to backend to confirm user consent&lt;br&gt;&lt;/font&gt;" style="html=1;shape=mxgraph.infographic.ribbonSimple;notch1=0;notch2=20;align=center;verticalAlign=middle;fontSize=14;fontStyle=0;whiteSpace=wrap;fillColor=#d5e8d4;strokeColor=#82b366;" vertex="1" parent="1">
          <mxGeometry x="270" y="1040" width="210" height="100" as="geometry" />
        </mxCell>
        <mxCell id="WAZ4GPwKuYtBpsJgTXGQ-35" style="edgeStyle=orthogonalEdgeStyle;rounded=0;orthogonalLoop=1;jettySize=auto;html=1;" edge="1" parent="1" source="WAZ4GPwKuYtBpsJgTXGQ-32" target="WAZ4GPwKuYtBpsJgTXGQ-28">
          <mxGeometry relative="1" as="geometry">
            <Array as="points">
              <mxPoint x="615" y="1200" />
              <mxPoint x="90" y="1200" />
            </Array>
          </mxGeometry>
        </mxCell>
        <mxCell id="WAZ4GPwKuYtBpsJgTXGQ-32" value="Receive success or &lt;br&gt;failure response" style="html=1;shadow=0;dashed=0;align=center;verticalAlign=middle;shape=mxgraph.arrows2.arrow;dy=0;dx=10;notch=10;fillColor=#d5e8d4;strokeColor=#82b366;" vertex="1" parent="1">
          <mxGeometry x="530" y="1060" width="170" height="60" as="geometry" />
        </mxCell>
      </root>
    </mxGraphModel>
  </diagram>
</mxfile>
